<svg width="190" height="24" viewBox="0 0 190 24" fill="none" xmlns="http://www.w3.org/2000/svg">
<path d="M14.2346 9.36222C13.7871 6.13068 11.3013 4.25568 8.07688 4.25568C4.27717 4.25568 1.41495 7.02557 1.41495 11.7273C1.41495 16.4219 4.24165 19.1989 8.07688 19.1989C11.5357 19.1989 13.8297 16.9616 14.2346 14.1847L11.5783 14.1705C11.2445 15.875 9.85245 16.8338 8.11239 16.8338C5.75444 16.8338 4.0641 15.0653 4.0641 11.7273C4.0641 8.44602 5.74023 6.62074 8.1195 6.62074C9.88796 6.62074 11.2729 7.62216 11.5783 9.36222H14.2346ZM16.5339 19H19.1049V8.09091H16.5339V19ZM17.8265 6.54261C18.6433 6.54261 19.3109 5.91761 19.3109 5.15057C19.3109 4.37642 18.6433 3.75142 17.8265 3.75142C17.0027 3.75142 16.335 4.37642 16.335 5.15057C16.335 5.91761 17.0027 6.54261 17.8265 6.54261ZM26.5073 19.2131C29.2488 19.2131 30.9959 17.5866 31.1806 15.2713H28.7232C28.503 16.4432 27.6578 17.1179 26.5286 17.1179C24.9235 17.1179 23.8865 15.7756 23.8865 13.5455C23.8865 11.3438 24.9448 10.0227 26.5286 10.0227C27.7644 10.0227 28.5243 10.8182 28.7232 11.8693H31.1806C31.003 9.50426 29.1564 7.94886 26.4931 7.94886C23.2971 7.94886 21.28 10.2571 21.28 13.5881C21.28 16.8906 23.2473 19.2131 26.5073 19.2131ZM35.8627 4.45455H33.2917V19H35.8627V4.45455ZM43.2651 19.2131C46.4611 19.2131 48.4924 16.9616 48.4924 13.5881C48.4924 10.2074 46.4611 7.94886 43.2651 7.94886C40.0691 7.94886 38.0378 10.2074 38.0378 13.5881C38.0378 16.9616 40.0691 19.2131 43.2651 19.2131ZM43.2793 17.1534C41.5108 17.1534 40.6444 15.5767 40.6444 13.581C40.6444 11.5852 41.5108 9.98722 43.2793 9.98722C45.0194 9.98722 45.8858 11.5852 45.8858 13.581C45.8858 15.5767 45.0194 17.1534 43.2793 17.1534ZM60.465 19.2131C63.0076 19.2131 64.7548 17.9702 65.2093 16.0739L62.8088 15.804C62.4608 16.7273 61.6085 17.2102 60.5005 17.2102C58.8386 17.2102 57.7377 16.1165 57.7164 14.2486H65.3159V13.4602C65.3159 9.6321 63.0147 7.94886 60.3301 7.94886C57.2051 7.94886 55.1667 10.2429 55.1667 13.6094C55.1667 17.0327 57.1767 19.2131 60.465 19.2131ZM57.7235 12.5156C57.8017 11.1236 58.8315 9.9517 60.3656 9.9517C61.8429 9.9517 62.8372 11.0312 62.8514 12.5156H57.7235ZM70.062 12.608C70.062 11.0312 71.0137 10.1222 72.3702 10.1222C73.6983 10.1222 74.4938 10.9957 74.4938 12.4517V19H77.0648V12.054C77.0719 9.44034 75.5804 7.94886 73.329 7.94886C71.6955 7.94886 70.5733 8.73011 70.0762 9.9446H69.9483V8.09091H67.4909V19H70.062V12.608ZM84.437 19.2131C87.1784 19.2131 88.9256 17.5866 89.1103 15.2713H86.6529C86.4327 16.4432 85.5875 17.1179 84.4583 17.1179C82.8532 17.1179 81.8162 15.7756 81.8162 13.5455C81.8162 11.3438 82.8745 10.0227 84.4583 10.0227C85.6941 10.0227 86.454 10.8182 86.6529 11.8693H89.1103C88.9327 9.50426 87.0861 7.94886 84.4228 7.94886C81.2267 7.94886 79.2097 10.2571 79.2097 13.5881C79.2097 16.8906 81.177 19.2131 84.437 19.2131ZM96.051 19.2131C98.5936 19.2131 100.341 17.9702 100.795 16.0739L98.3947 15.804C98.0467 16.7273 97.1944 17.2102 96.0865 17.2102C94.4245 17.2102 93.3237 16.1165 93.3024 14.2486H100.902V13.4602C100.902 9.6321 98.6007 7.94886 95.916 7.94886C92.791 7.94886 90.7527 10.2429 90.7527 13.6094C90.7527 17.0327 92.7626 19.2131 96.051 19.2131ZM93.3095 12.5156C93.3876 11.1236 94.4174 9.9517 95.9515 9.9517C97.4288 9.9517 98.4231 11.0312 98.4373 12.5156H93.3095ZM103.077 19H105.648V12.5866C105.648 11.2017 106.692 10.2216 108.105 10.2216C108.539 10.2216 109.078 10.2997 109.298 10.3707V8.00568C109.064 7.96307 108.659 7.93466 108.375 7.93466C107.125 7.93466 106.081 8.64489 105.683 9.90909H105.57V8.09091H103.077V19ZM111.007 19H113.578V12.5866C113.578 11.2017 114.622 10.2216 116.035 10.2216C116.468 10.2216 117.008 10.2997 117.228 10.3707V8.00568C116.994 7.96307 116.589 7.93466 116.305 7.93466C115.055 7.93466 114.011 8.64489 113.613 9.90909H113.499V8.09091H111.007V19ZM121.861 19.2202C123.572 19.2202 124.595 18.4176 125.064 17.5014H125.149V19H127.621V11.6989C127.621 8.81534 125.27 7.94886 123.189 7.94886C120.895 7.94886 119.133 8.97159 118.565 10.9602L120.966 11.3011C121.221 10.5554 121.946 9.91619 123.203 9.91619C124.396 9.91619 125.05 10.527 125.05 11.5994V11.642C125.05 12.3807 124.275 12.4162 122.351 12.6222C120.234 12.8494 118.21 13.4815 118.21 15.9389C118.21 18.0838 119.78 19.2202 121.861 19.2202ZM122.528 17.331C121.456 17.331 120.689 16.8409 120.689 15.8963C120.689 14.9091 121.548 14.4972 122.699 14.3338C123.373 14.2415 124.723 14.071 125.057 13.8011V15.0866C125.057 16.3011 124.077 17.331 122.528 17.331ZM134.254 19.1918C136.129 19.1918 136.974 18.0767 137.379 17.2812H137.535V19H140.064V4.45455H137.486V9.89489H137.379C136.988 9.10653 136.186 7.94886 134.261 7.94886C131.74 7.94886 129.758 9.9233 129.758 13.5597C129.758 17.1534 131.683 19.1918 134.254 19.1918ZM134.971 17.0824C133.274 17.0824 132.379 15.5909 132.379 13.5455C132.379 11.5142 133.26 10.0582 134.971 10.0582C136.626 10.0582 137.535 11.429 137.535 13.5455C137.535 15.6619 136.612 17.0824 134.971 17.0824ZM147.562 19.2131C150.758 19.2131 152.789 16.9616 152.789 13.5881C152.789 10.2074 150.758 7.94886 147.562 7.94886C144.366 7.94886 142.335 10.2074 142.335 13.5881C142.335 16.9616 144.366 19.2131 147.562 19.2131ZM147.576 17.1534C145.808 17.1534 144.941 15.5767 144.941 13.581C144.941 11.5852 145.808 9.98722 147.576 9.98722C149.316 9.98722 150.183 11.5852 150.183 13.581C150.183 15.5767 149.316 17.1534 147.576 17.1534Z" fill="#666666"/>
<path d="M180 3.66663C175.4 3.66663 171.667 7.39996 171.667 12C171.667 16.6 175.4 20.3333 180 20.3333C184.6 20.3333 188.333 16.6 188.333 12C188.333 7.39996 184.6 3.66663 180 3.66663ZM178.333 16.1666L174.167 12L175.342 10.825L178.333 13.8083L184.658 7.48329L185.833 8.66663L178.333 16.1666Z" fill="#4CD62B"/>
</svg>
